<svg xmlns="http://www.w3.org/2000/svg" viewBox="0 0 1200 750" fill="none">
  <rect width="1200" height="750" fill="#F7EEE2"/>
  <circle cx="1040" cy="130" r="112" fill="#F1DFC9"/>
  <circle cx="168" cy="615" r="154" fill="#F3E4D2"/>
  <path d="M0 625c181-73 355-58 507-5 174 61 305 60 462 6 92-32 169-33 231-13v137H0V625Z" fill="#EBD8C0"/>
  <ellipse cx="600" cy="592" rx="300" ry="56" fill="#DDBE99" opacity=".48"/>
  <path d="M370 364c0-107 87-194 194-194h72c107 0 194 87 194 194v176H370V364Z" fill="#FFFFFF" stroke="#A95035" stroke-width="22" stroke-linejoin="round"/>
  <path d="M370 422h460M454 232c42 49 92 70 146 70s104-21 146-70" stroke="#A95035" stroke-width="18" stroke-linecap="round"/>
  <circle cx="510" cy="392" r="22" fill="#D89B5F"/>
  <circle cx="600" cy="362" r="22" fill="#D89B5F"/>
  <circle cx="690" cy="402" r="22" fill="#D89B5F"/>
  <path d="M445 540h310" stroke="#A95035" stroke-width="22" stroke-linecap="round"/>
</svg>
