<svg width="32" height="32" viewBox="0 0 32 32" fill="none" xmlns="http://www.w3.org/2000/svg">
<circle cx="16" cy="16" r="16" fill="#00786F"/>
<path d="M15 17L14 18" stroke="white" stroke-width="2" stroke-linecap="round" stroke-linejoin="round"/>
<path d="M16.75 21.25L15.5 22.67" stroke="white" stroke-width="2" stroke-linecap="round" stroke-linejoin="round"/>
<path d="M20.7748 8.65381C17.7961 9.27959 15.0639 10.7588 12.9116 12.9109C10.7593 15.0631 9.27984 17.7952 8.65381 20.7738" stroke="white" stroke-width="2" stroke-linecap="round" stroke-linejoin="round"/>
<path d="M21.8 12.2998C20.7789 12.5783 19.9103 13.251 19.3852 14.1699C18.8601 15.0888 18.7215 16.1787 19 17.1998C19.2785 18.2209 19.9512 19.0895 20.8701 19.6146C21.789 20.1397 22.8789 20.2783 23.9 19.9998" stroke="white" stroke-width="2" stroke-linecap="round" stroke-linejoin="round"/>
<path d="M24.9638 23.7318C25.0114 23.9025 25.0128 24.0829 24.9678 24.2544C24.9228 24.4259 24.833 24.5823 24.7077 24.7077C24.5823 24.833 24.4259 24.9228 24.2544 24.9678C24.0829 25.0128 23.9025 25.0114 23.7318 24.9638L5.73176 19.9638C5.60522 19.9285 5.48686 19.8687 5.38344 19.7877C5.28002 19.7067 5.19357 19.6062 5.12903 19.4917C5.06449 19.3773 5.02312 19.2513 5.00729 19.1209C4.99146 18.9905 5.00147 18.8583 5.03676 18.7318C5.94501 15.462 7.68335 12.4826 10.083 10.083C12.4826 7.68335 15.462 5.94501 18.7318 5.03676C18.8583 5.00147 18.9905 4.99146 19.1209 5.00729C19.2513 5.02312 19.3773 5.06449 19.4917 5.12903C19.6062 5.19357 19.7067 5.28002 19.7877 5.38344C19.8687 5.48686 19.9285 5.60522 19.9638 5.73176L24.9638 23.7318Z" stroke="white" stroke-width="2" stroke-linecap="round" stroke-linejoin="round"/>
</svg>
